<?xml version="1.0" encoding="UTF-8"?>
<svg xmlns="http://www.w3.org/2000/svg" xmlns:xlink="http://www.w3.org/1999/xlink" width="150px" height="150px" viewBox="0 0 150 150" version="1.1">
<defs>
<clipPath id="clip1">
  <path d="M 17.953125 14.757812 L 131.953125 14.757812 L 131.953125 128.757812 L 17.953125 128.757812 Z M 17.953125 14.757812 "/>
</clipPath>
<clipPath id="clip2">
  <path d="M 18 14.800781 L 131.953125 14.800781 L 131.953125 128.757812 L 18 128.757812 Z M 18 14.800781 "/>
</clipPath>
</defs>
<g id="surface1">
<path style=" stroke:none;fill-rule:nonzero;fill:rgb(45.490196%,13.72549%,8.235294%);fill-opacity:1;" d="M 57.796875 51.308594 L 57.796875 76.625 C 58.4375 76.292969 58.949219 75.8125 59.335938 75.183594 C 59.722656 74.550781 59.917969 73.851562 59.917969 73.089844 L 59.917969 51.308594 L 61.796875 51.308594 L 61.796875 73.089844 C 61.796875 74.707031 61.222656 76.09375 60.078125 77.246094 C 58.933594 78.394531 57.542969 78.96875 55.917969 78.96875 L 55.917969 51.308594 Z M 57.796875 51.308594 "/>
<path style=" stroke:none;fill-rule:nonzero;fill:rgb(45.490196%,13.72549%,8.235294%);fill-opacity:1;" d="M 68.042969 54.140625 C 68.042969 53.839844 67.941406 53.585938 67.730469 53.382812 C 67.523438 53.179688 67.273438 53.078125 66.980469 53.078125 C 66.683594 53.078125 66.429688 53.179688 66.226562 53.382812 C 66.027344 53.585938 65.925781 53.839844 65.925781 54.140625 L 65.925781 76.03125 C 65.925781 76.332031 66.027344 76.585938 66.226562 76.789062 C 66.429688 76.988281 66.683594 77.089844 66.980469 77.089844 C 67.273438 77.089844 67.523438 76.988281 67.730469 76.789062 C 67.941406 76.585938 68.042969 76.332031 68.042969 76.03125 Z M 64.042969 54.140625 C 64.042969 53.324219 64.328125 52.628906 64.902344 52.058594 C 65.476562 51.484375 66.167969 51.195312 66.980469 51.195312 C 67.796875 51.195312 68.492188 51.484375 69.0625 52.058594 C 69.636719 52.628906 69.925781 53.324219 69.925781 54.140625 L 69.925781 76.03125 C 69.925781 76.84375 69.636719 77.539062 69.0625 78.113281 C 68.492188 78.6875 67.796875 78.96875 66.980469 78.96875 C 66.167969 78.96875 65.476562 78.6875 64.902344 78.113281 C 64.328125 77.539062 64.042969 76.84375 64.042969 76.03125 Z M 64.042969 54.140625 "/>
<path style=" stroke:none;fill-rule:nonzero;fill:rgb(45.490196%,13.72549%,8.235294%);fill-opacity:1;" d="M 76.171875 54.140625 C 76.171875 53.839844 76.066406 53.585938 75.859375 53.382812 C 75.652344 53.179688 75.402344 53.078125 75.109375 53.078125 C 74.808594 53.078125 74.558594 53.179688 74.355469 53.382812 C 74.152344 53.585938 74.054688 53.839844 74.054688 54.140625 L 74.054688 76.03125 C 74.054688 76.332031 74.152344 76.585938 74.355469 76.789062 C 74.558594 76.988281 74.808594 77.089844 75.109375 77.089844 C 75.402344 77.089844 75.652344 76.988281 75.859375 76.789062 C 76.066406 76.585938 76.171875 76.332031 76.171875 76.03125 Z M 72.171875 54.140625 C 72.171875 53.324219 72.457031 52.628906 73.027344 52.058594 C 73.605469 51.484375 74.296875 51.195312 75.109375 51.195312 C 75.925781 51.195312 76.621094 51.484375 77.191406 52.058594 C 77.765625 52.628906 78.054688 53.324219 78.054688 54.140625 L 78.054688 76.03125 C 78.054688 76.84375 77.765625 77.539062 77.191406 78.113281 C 76.621094 78.6875 75.925781 78.96875 75.109375 78.96875 C 74.296875 78.96875 73.605469 78.6875 73.027344 78.113281 C 72.457031 77.539062 72.171875 76.84375 72.171875 76.03125 Z M 72.171875 54.140625 "/>
<path style=" stroke:none;fill-rule:nonzero;fill:rgb(45.490196%,13.72549%,8.235294%);fill-opacity:1;" d="M 83.238281 76.976562 C 83.539062 76.976562 83.789062 76.875 83.996094 76.675781 C 84.199219 76.472656 84.300781 76.21875 84.300781 75.921875 L 84.300781 54.246094 C 84.300781 53.949219 84.199219 53.699219 83.996094 53.496094 C 83.789062 53.292969 83.539062 53.1875 83.238281 53.1875 L 82.183594 53.1875 L 82.183594 76.976562 C 82.183594 76.976562 82.535156 76.976562 83.238281 76.976562 Z M 80.300781 78.859375 L 80.300781 51.308594 L 83.238281 51.308594 C 84.054688 51.308594 84.746094 51.59375 85.320312 52.171875 C 85.894531 52.742188 86.183594 53.433594 86.183594 54.246094 L 86.183594 75.921875 C 86.183594 76.734375 85.894531 77.425781 85.320312 78 C 84.746094 78.574219 84.054688 78.859375 83.238281 78.859375 Z M 80.300781 78.859375 "/>
<path style=" stroke:none;fill-rule:nonzero;fill:rgb(45.490196%,13.72549%,8.235294%);fill-opacity:1;" d="M 94.199219 76.03125 C 94.199219 76.84375 93.910156 77.539062 93.335938 78.113281 C 92.761719 78.6875 92.070312 78.96875 91.253906 78.96875 C 90.441406 78.96875 89.746094 78.6875 89.171875 78.113281 C 88.601562 77.539062 88.316406 76.84375 88.316406 76.03125 L 88.316406 70.621094 L 90.199219 70.621094 L 90.199219 76.03125 C 90.199219 76.332031 90.300781 76.585938 90.511719 76.789062 C 90.71875 76.988281 90.964844 77.089844 91.253906 77.089844 C 91.554688 77.089844 91.804688 76.988281 92.011719 76.789062 C 92.214844 76.585938 92.316406 76.332031 92.316406 76.03125 L 92.316406 68.339844 L 88.316406 61.765625 L 88.316406 54.140625 C 88.316406 53.324219 88.601562 52.628906 89.171875 52.058594 C 89.746094 51.484375 90.441406 51.195312 91.253906 51.195312 C 92.070312 51.195312 92.761719 51.484375 93.335938 52.058594 C 93.910156 52.628906 94.199219 53.324219 94.199219 54.140625 L 94.199219 59.53125 L 92.316406 59.53125 L 92.316406 54.140625 C 92.316406 53.839844 92.214844 53.585938 92.011719 53.382812 C 91.804688 53.179688 91.554688 53.078125 91.253906 53.078125 C 90.964844 53.078125 90.71875 53.179688 90.511719 53.382812 C 90.300781 53.585938 90.199219 53.839844 90.199219 54.140625 L 90.199219 61.25 L 94.199219 67.808594 Z M 94.199219 76.03125 "/>
<path style=" stroke:none;fill-rule:nonzero;fill:rgb(55.686275%,61.568627%,61.568627%);fill-opacity:1;" d="M 56.785156 126.066406 C 53 126.066406 49.558594 123.8125 48.078125 120.320312 L 44.542969 112.070312 C 42.308594 107.625 38.707031 104.296875 34.148438 102.472656 L 27.652344 99.875 C 24.53125 98.644531 22.296875 95.816406 21.792969 92.511719 C 21.542969 90.847656 21.75 89.140625 22.363281 87.566406 L 24.9375 81.183594 C 26.855469 76.394531 26.878906 71.128906 24.984375 66.34375 C 24.828125 65.953125 24.664062 65.566406 24.507812 65.203125 L 21.222656 57.519531 C 20.449219 55.695312 20.265625 53.691406 20.699219 51.753906 C 21.359375 48.765625 23.414062 46.304688 26.214844 45.097656 L 35.128906 41.289062 C 39.621094 39.148438 43.152344 35.453125 45.089844 30.875 L 47.78125 24.148438 C 49.238281 20.546875 52.679688 18.199219 56.578125 18.199219 C 57.789062 18.199219 58.972656 18.425781 60.113281 18.882812 L 67.542969 21.867188 C 69.59375 22.574219 71.738281 22.917969 73.90625 22.917969 C 76.617188 22.917969 79.285156 22.371094 81.835938 21.277344 L 88.996094 18.222656 C 90.179688 17.695312 91.433594 17.445312 92.710938 17.445312 C 96.496094 17.445312 99.914062 19.703125 101.417969 23.191406 L 104.746094 30.941406 C 106.867188 35.476562 110.582031 39.011719 115.1875 40.949219 L 123.507812 44.300781 C 125.855469 45.234375 127.703125 47.035156 128.703125 49.359375 C 129.683594 51.6875 129.730469 54.261719 128.796875 56.609375 L 125.308594 65.339844 C 123.621094 70.058594 123.757812 75.210938 125.671875 79.835938 L 128.316406 86.015625 C 130.367188 90.824219 128.132812 96.386719 123.347656 98.4375 L 116.351562 101.425781 C 111.925781 103.613281 108.460938 107.375 106.617188 111.980469 L 103.378906 120.046875 C 101.921875 123.671875 98.476562 126 94.578125 126 C 93.371094 126 92.1875 125.769531 91.046875 125.3125 L 82.382812 121.851562 C 80.171875 121.050781 77.871094 120.640625 75.523438 120.640625 C 72.855469 120.640625 70.234375 121.164062 67.726562 122.214844 L 60.476562 125.3125 C 59.316406 125.816406 58.0625 126.066406 56.785156 126.066406 Z M 56.578125 18.40625 C 52.773438 18.40625 49.398438 20.683594 47.960938 24.21875 L 45.273438 30.941406 C 43.3125 35.570312 39.734375 39.308594 35.175781 41.429688 L 26.261719 45.234375 C 23.527344 46.398438 21.5 48.835938 20.859375 51.753906 C 20.425781 53.644531 20.609375 55.605469 21.382812 57.40625 L 24.664062 65.089844 C 24.847656 65.453125 25.007812 65.863281 25.167969 66.25 C 27.058594 71.085938 27.039062 76.417969 25.121094 81.25 L 22.570312 87.632812 C 21.953125 89.160156 21.75 90.847656 22 92.46875 C 22.5 95.703125 24.6875 98.460938 27.71875 99.671875 L 34.21875 102.289062 C 38.820312 104.136719 42.46875 107.488281 44.726562 111.980469 L 48.257812 120.230469 C 49.71875 123.648438 53.070312 125.863281 56.785156 125.863281 C 58.039062 125.863281 59.269531 125.609375 60.433594 125.109375 L 67.679688 122.007812 C 70.210938 120.9375 72.855469 120.414062 75.546875 120.414062 C 77.917969 120.414062 80.242188 120.824219 82.476562 121.621094 L 91.136719 125.109375 C 92.253906 125.542969 93.394531 125.769531 94.578125 125.769531 C 98.386719 125.769531 101.761719 123.492188 103.171875 119.957031 L 106.410156 111.886719 C 108.28125 107.238281 111.765625 103.453125 116.234375 101.242188 L 123.234375 98.257812 C 127.929688 96.25 130.117188 90.78125 128.113281 86.085938 L 125.46875 79.90625 C 123.53125 75.234375 123.394531 70.035156 125.101562 65.25 L 128.589844 56.519531 C 129.503906 54.214844 129.480469 51.707031 128.5 49.429688 C 127.542969 47.148438 125.71875 45.394531 123.4375 44.484375 L 115.09375 41.132812 C 110.445312 39.171875 106.683594 35.570312 104.542969 31.007812 L 101.214844 23.257812 C 99.753906 19.839844 96.402344 17.628906 92.6875 17.628906 C 91.433594 17.628906 90.203125 17.878906 89.039062 18.382812 L 81.882812 21.460938 C 79.304688 22.554688 76.617188 23.101562 73.859375 23.101562 C 71.671875 23.101562 69.503906 22.734375 67.429688 22.027344 L 59.976562 19.042969 C 58.929688 18.632812 57.765625 18.40625 56.578125 18.40625 Z M 56.578125 18.40625 "/>
<g clip-path="url(#clip1)" clip-rule="nonzero">
<path style=" stroke:none;fill-rule:nonzero;fill:rgb(55.686275%,61.568627%,61.568627%);fill-opacity:1;" d="M 68.207031 128.550781 C 64.492188 129.304688 60.683594 127.777344 58.515625 124.652344 L 53.410156 117.265625 C 50.335938 113.371094 46.140625 110.839844 41.304688 109.949219 L 34.421875 108.695312 C 31.140625 108.082031 28.382812 105.78125 27.242188 102.632812 C 26.648438 101.0625 26.511719 99.351562 26.808594 97.6875 L 28.039062 90.9375 C 28.976562 85.878906 27.925781 80.703125 25.144531 76.394531 C 24.917969 76.054688 24.664062 75.710938 24.4375 75.371094 L 19.652344 68.484375 C 18.511719 66.84375 17.941406 64.929688 17.964844 62.921875 C 18.03125 59.867188 19.539062 57.042969 22.046875 55.308594 L 30.023438 49.792969 C 34.011719 46.828125 36.769531 42.5 37.726562 37.621094 L 39.027344 30.484375 C 39.734375 26.65625 42.628906 23.691406 46.460938 22.894531 C 47.644531 22.667969 48.851562 22.644531 50.039062 22.847656 L 57.902344 24.285156 C 60.046875 24.558594 62.234375 24.46875 64.351562 24.035156 C 67.019531 23.488281 69.527344 22.414062 71.808594 20.84375 L 78.210938 16.421875 C 79.261719 15.691406 80.445312 15.191406 81.699219 14.914062 C 85.414062 14.164062 89.222656 15.691406 91.390625 18.8125 L 96.175781 25.742188 C 99.164062 29.757812 103.492188 32.515625 108.417969 33.472656 L 117.238281 35.066406 C 119.722656 35.523438 121.890625 36.914062 123.324219 38.988281 C 124.761719 41.0625 125.308594 43.570312 124.851562 46.078125 L 123.164062 55.308594 C 122.460938 60.257812 123.597656 65.292969 126.425781 69.445312 L 130.230469 74.960938 C 133.195312 79.246094 132.125 85.148438 127.839844 88.136719 L 121.59375 92.46875 C 117.695312 95.519531 115.050781 99.875 114.160156 104.753906 L 112.609375 113.300781 C 111.90625 117.132812 108.984375 120.117188 105.179688 120.890625 C 103.992188 121.144531 102.785156 121.144531 101.601562 120.9375 L 92.4375 119.273438 C 90.113281 118.929688 87.789062 119 85.484375 119.457031 C 82.863281 119.980469 80.402344 121.03125 78.167969 122.554688 L 71.671875 127.046875 C 70.621094 127.800781 69.460938 128.300781 68.207031 128.550781 Z M 46.503906 23.101562 C 42.765625 23.875 39.917969 26.769531 39.234375 30.53125 L 37.933594 37.664062 C 36.929688 42.589844 34.171875 46.96875 30.136719 49.976562 L 22.160156 55.492188 C 19.71875 57.179688 18.238281 59.960938 18.171875 62.945312 C 18.148438 64.90625 18.695312 66.777344 19.8125 68.394531 L 24.574219 75.257812 C 24.828125 75.597656 25.054688 75.9375 25.28125 76.28125 C 28.109375 80.636719 29.132812 85.855469 28.222656 90.984375 L 26.992188 97.734375 C 26.695312 99.375 26.832031 101.039062 27.402344 102.585938 C 28.542969 105.664062 31.230469 107.945312 34.445312 108.515625 L 41.328125 109.769531 C 46.230469 110.65625 50.46875 113.210938 53.570312 117.175781 L 58.675781 124.5625 C 60.773438 127.617188 64.511719 129.121094 68.160156 128.367188 C 69.390625 128.117188 70.53125 127.617188 71.578125 126.910156 L 78.078125 122.421875 C 80.332031 120.871094 82.816406 119.820312 85.460938 119.296875 C 87.765625 118.816406 90.132812 118.75 92.484375 119.113281 L 101.648438 120.777344 C 102.808594 120.984375 103.992188 120.984375 105.15625 120.734375 C 108.894531 119.980469 111.746094 117.0625 112.429688 113.300781 L 113.976562 104.753906 C 114.867188 99.828125 117.535156 95.429688 121.5 92.351562 L 127.746094 88.023438 C 131.941406 85.101562 132.992188 79.335938 130.09375 75.140625 L 126.265625 69.625 C 123.414062 65.429688 122.253906 60.371094 122.960938 55.355469 L 124.648438 46.101562 C 125.078125 43.660156 124.554688 41.199219 123.164062 39.171875 C 121.75 37.140625 119.632812 35.773438 117.214844 35.339844 L 108.371094 33.722656 C 103.425781 32.742188 99.023438 29.960938 96.015625 25.925781 L 91.230469 18.996094 C 89.109375 15.941406 85.394531 14.4375 81.746094 15.191406 C 80.515625 15.441406 79.375 15.941406 78.328125 16.648438 L 71.921875 21.070312 C 69.617188 22.667969 67.089844 23.738281 64.398438 24.285156 C 62.257812 24.71875 60.066406 24.808594 57.878906 24.535156 L 49.992188 23.101562 C 48.828125 22.847656 47.644531 22.871094 46.503906 23.101562 Z M 46.503906 23.101562 "/>
</g>
<g clip-path="url(#clip2)" clip-rule="nonzero">
<path style=" stroke:none;fill-rule:nonzero;fill:rgb(55.686275%,61.568627%,61.568627%);fill-opacity:1;" d="M 19.492188 85.765625 C 17.460938 82.550781 17.53125 78.46875 19.652344 75.324219 L 24.710938 67.914062 C 27.265625 63.628906 28.132812 58.820312 27.21875 53.988281 L 25.921875 47.101562 C 25.304688 43.820312 26.492188 40.425781 29.019531 38.214844 C 30.273438 37.097656 31.824219 36.34375 33.488281 36.046875 L 40.234375 34.792969 C 45.296875 33.835938 49.765625 31.03125 52.796875 26.882812 C 53.046875 26.542969 53.273438 26.199219 53.503906 25.859375 L 58.222656 18.953125 C 59.335938 17.308594 60.933594 16.078125 62.804688 15.394531 C 65.652344 14.367188 68.867188 14.757812 71.375 16.46875 L 79.375 21.9375 C 83.570312 24.605469 88.609375 25.609375 93.507812 24.789062 L 100.621094 23.441406 C 104.449219 22.710938 108.28125 24.375 110.375 27.660156 C 111.015625 28.664062 111.472656 29.800781 111.699219 30.988281 L 113.15625 38.875 C 113.683594 40.972656 114.527344 42.976562 115.6875 44.800781 C 117.148438 47.101562 119.039062 49.0625 121.34375 50.613281 L 127.769531 55.015625 C 128.820312 55.742188 129.730469 56.65625 130.414062 57.75 C 132.445312 60.960938 132.375 65.042969 130.230469 68.1875 L 125.46875 75.164062 C 122.777344 79.382812 121.773438 84.421875 122.617188 89.34375 L 124.28125 98.164062 C 124.738281 100.648438 124.214844 103.15625 122.777344 105.253906 C 121.363281 107.351562 119.199219 108.742188 116.714844 109.222656 L 107.484375 110.953125 C 102.601562 112.070312 98.320312 114.941406 95.445312 119.046875 L 91.664062 124.585938 C 88.722656 128.894531 82.816406 130.011719 78.507812 127.070312 L 72.242188 122.785156 C 68 120.230469 62.984375 119.320312 58.109375 120.230469 L 49.582031 121.828125 C 45.75 122.554688 41.921875 120.890625 39.847656 117.609375 C 39.1875 116.585938 38.753906 115.46875 38.527344 114.28125 L 36.816406 105.117188 C 36.292969 102.816406 35.402344 100.671875 34.148438 98.6875 C 32.710938 96.433594 30.84375 94.496094 28.632812 92.96875 L 22.136719 88.523438 C 21.0625 87.75 20.175781 86.835938 19.492188 85.765625 Z M 110.195312 27.773438 C 108.144531 24.558594 104.40625 22.941406 100.664062 23.648438 L 93.53125 24.992188 C 88.585938 25.835938 83.5 24.808594 79.261719 22.121094 L 71.261719 16.648438 C 68.796875 14.960938 65.675781 14.550781 62.871094 15.578125 C 61.046875 16.238281 59.5 17.445312 58.382812 19.066406 L 53.664062 25.972656 C 53.457031 26.3125 53.207031 26.679688 52.953125 27.019531 C 49.902344 31.214844 45.386719 34.0625 40.28125 35.023438 L 33.535156 36.296875 C 31.890625 36.59375 30.386719 37.324219 29.15625 38.417969 C 26.695312 40.585938 25.53125 43.914062 26.148438 47.125 L 27.445312 54.011719 C 28.382812 58.890625 27.492188 63.765625 24.917969 68.074219 L 19.835938 75.4375 C 17.734375 78.515625 17.667969 82.503906 19.652344 85.648438 C 20.335938 86.699219 21.203125 87.609375 22.226562 88.316406 L 28.746094 92.761719 C 31.003906 94.3125 32.871094 96.25 34.332031 98.554688 C 35.609375 100.535156 36.496094 102.726562 37.023438 105.050781 L 38.753906 114.214844 C 38.960938 115.398438 39.390625 116.492188 40.03125 117.472656 C 42.082031 120.6875 45.820312 122.304688 49.558594 121.621094 L 58.085938 120.027344 C 63.007812 119.113281 68.070312 120.027344 72.355469 122.601562 L 78.644531 126.910156 C 82.863281 129.78125 88.628906 128.6875 91.523438 124.492188 L 95.308594 118.953125 C 98.226562 114.804688 102.535156 111.886719 107.484375 110.773438 L 116.714844 109.039062 C 119.152344 108.582031 121.25 107.214844 122.664062 105.164062 C 124.054688 103.113281 124.578125 100.648438 124.125 98.234375 L 122.460938 89.414062 C 121.617188 84.421875 122.640625 79.335938 125.332031 75.074219 L 130.09375 68.121094 C 132.191406 65.042969 132.261719 61.054688 130.253906 57.90625 C 129.59375 56.859375 128.726562 55.949219 127.679688 55.242188 L 121.226562 50.796875 C 118.925781 49.222656 117.011719 47.242188 115.527344 44.914062 C 114.34375 43.070312 113.5 41.0625 112.953125 38.921875 L 111.472656 31.03125 C 111.265625 29.871094 110.832031 28.777344 110.195312 27.773438 Z M 110.195312 27.773438 "/>
</g>
</g>
</svg>
